<svg width="15" height="15" viewBox="0 0 15 15" fill="none" xmlns="http://www.w3.org/2000/svg">
<g id="eva:arrow-back-fill">
<path id="Vector" d="M3.125 6.87481H10.5375L8.26875 4.14981C8.16266 4.02217 8.11162 3.85762 8.12686 3.69235C8.1421 3.52709 8.22236 3.37464 8.35 3.26856C8.47764 3.16247 8.64219 3.11143 8.80745 3.12667C8.97272 3.14191 9.12516 3.22217 9.23125 3.34981L12.3562 7.09981C12.3773 7.12963 12.3961 7.16097 12.4125 7.19356C12.4125 7.22481 12.4125 7.24356 12.4562 7.27481C12.4846 7.34647 12.4994 7.42275 12.5 7.49981C12.4994 7.57686 12.4846 7.65314 12.4562 7.72481C12.4562 7.75606 12.4563 7.77481 12.4125 7.80606C12.3961 7.83864 12.3773 7.86998 12.3562 7.89981L9.23125 11.6498C9.17249 11.7204 9.0989 11.7771 9.01572 11.816C8.93254 11.8549 8.84182 11.875 8.75 11.8748C8.60397 11.8751 8.46244 11.8242 8.35 11.7311C8.28671 11.6786 8.2344 11.6141 8.19605 11.5414C8.15771 11.4687 8.13409 11.3891 8.12654 11.3073C8.11899 11.2254 8.12767 11.1429 8.15207 11.0644C8.17647 10.9859 8.21612 10.913 8.26875 10.8498L10.5375 8.12481H3.125C2.95924 8.12481 2.80027 8.05896 2.68306 7.94175C2.56585 7.82454 2.5 7.66557 2.5 7.49981C2.5 7.33405 2.56585 7.17507 2.68306 7.05786C2.80027 6.94065 2.95924 6.87481 3.125 6.87481Z" fill="#486284"/>
</g>
</svg>
