<?xml version="1.0" encoding="UTF-8" standalone="no"?>
<svg
   xmlns:dc="http://purl.org/dc/elements/1.1/"
   xmlns:cc="http://creativecommons.org/ns#"
   xmlns:rdf="http://www.w3.org/1999/02/22-rdf-syntax-ns#"
   xmlns:svg="http://www.w3.org/2000/svg"
   xmlns="http://www.w3.org/2000/svg"
   viewBox="0 0 247.67467 70.781868"
   height="70.781868"
   width="247.67467"
   xml:space="preserve"
   id="svg2"
   version="1.1"><metadata
     id="metadata8"><rdf:RDF><cc:Work
         rdf:about=""><dc:format>image/svg+xml</dc:format><dc:type
           rdf:resource="http://purl.org/dc/dcmitype/StillImage" /></cc:Work></rdf:RDF></metadata><defs
     id="defs6"><clipPath
       id="clipPath18"
       clipPathUnits="userSpaceOnUse"><path
         id="path16"
         d="M 0,53.086 H 185.756 V 0 H 0 Z" /></clipPath></defs><g
     transform="matrix(1.3333333,0,0,-1.3333333,0,70.781867)"
     id="g10"><g
       id="g12"><g
         clip-path="url(#clipPath18)"
         id="g14"><g
           transform="translate(0,12.9117)"
           id="g20"><path
             id="path22"
             style="fill:#486284;fill-opacity:1;fill-rule:nonzero;stroke:none"
             d="m 0,0 h 8.641 c 0.072,-2.376 2.16,-3.96 6.337,-3.96 4.392,0 6.264,1.8 6.264,3.96 0,2.736 -3.168,3.097 -6.985,3.601 C 8.785,4.321 0.72,5.257 0.72,13.969 c 0,7.273 3.724,11.223 12.293,11.223 8.712,0 25.68,-0.135 26.065,-0.135 l 0.029,-7.658 c -4,0 -20.745,0.312 -24.129,0.312 -3.745,0 -5.617,-1.005 -5.617,-3.093 0,-2.737 3.24,-3.169 7.056,-3.673 4.753,-0.648 13.466,-1.584 13.466,-10.441 0,-7.2 -5.833,-11.953 -14.905,-11.953 C 5.905,-11.449 0.216,-6.625 0,0" /></g><g
           transform="translate(30.5674,16.0802)"
           id="g24"><path
             id="path26"
             style="fill:#486284;fill-opacity:1;fill-rule:nonzero;stroke:none"
             d="M 0,0 V 34.491 H 8.569 V 21.89 L 37.732,21.818 37.584,14.113 H 8.569 V 0 c 0,-4.752 2.448,-6.625 5.976,-6.625 3.529,0 5.851,2.046 5.851,6.87 L 20.633,1.043 28.559,0.979 29.09,0 c 0,-9.865 -5.904,-14.617 -14.545,-14.617 C 5.904,-14.617 0,-9.865 0,0" /></g><g
           transform="translate(80.2817,19.1847)"
           id="g28"><path
             id="path30"
             style="fill:#486284;fill-opacity:1;fill-rule:nonzero;stroke:none"
             d="m 0,0 c 0,6.265 -4.176,10.729 -10.441,10.729 -6.264,0 -10.513,-4.464 -10.513,-10.729 0,-6.265 4.249,-10.729 10.513,-10.729 C -4.176,-10.729 0,-6.265 0,0 m -29.594,0.36 c 0,12.169 9.073,18.362 17.713,18.362 5.112,0 9.361,-2.16 11.881,-6.121 V 33.339 H 8.569 V 0.288 c 0,-11.521 -7.777,-19.01 -18.938,-19.01 -11.305,0 -19.225,7.777 -19.225,19.082" /></g><path
           id="path32"
           style="fill:#486284;fill-opacity:1;fill-rule:nonzero;stroke:none"
           d="m 90.678,37.029 h 8.569 V 1.458 h -8.569 z m -1.367,10.297 c 0,3.312 2.376,5.76 5.688,5.76 3.312,0 5.689,-2.448 5.689,-5.76 0,-3.312 -2.377,-5.688 -5.689,-5.688 -3.312,0 -5.688,2.376 -5.688,5.688" /><g
           transform="translate(130.0983,18.7217)"
           id="g34"><path
             id="path36"
             style="fill:#486284;fill-opacity:1;fill-rule:nonzero;stroke:none"
             d="m 0,0 c 0,6.265 -4.176,10.729 -10.44,10.729 -6.265,0 -10.514,-4.464 -10.514,-10.729 0,-6.265 4.249,-10.729 10.514,-10.729 C -4.176,-10.729 0,-6.265 0,0 m -29.595,0 c 0,10.801 7.921,18.722 19.155,18.722 11.232,0 19.153,-7.921 19.153,-18.722 0,-10.801 -7.921,-18.722 -19.153,-18.722 -11.234,0 -19.155,7.921 -19.155,18.722" /></g><g
           transform="translate(137.5108,7.1515)"
           id="g38"><path
             id="path40"
             style="fill:#1a202c;fill-opacity:1;fill-rule:nonzero;stroke:none"
             d="M 0,0 C 0,3.24 2.448,5.688 5.688,5.688 8.929,5.688 11.377,3.24 11.377,0 11.377,-3.24 8.929,-5.688 5.688,-5.688 2.448,-5.688 0,-3.24 0,0" /></g><g
           transform="translate(150.6176,52.063)"
           id="g42"><path
             id="path44"
             style="fill:#486284;fill-opacity:1;fill-rule:nonzero;stroke:none"
             d="m 0,0 h 8.568 v -20.522 c 2.376,3.816 6.049,5.905 10.585,5.905 8.209,0 15.986,-5.329 15.986,-18.002 V -51.125 H 26.57 v 18.506 c 0,6.769 -3.6,10.009 -9.001,10.009 -5.256,0 -9.001,-3.384 -9.001,-10.009 V -51.125 H 0 Z" /></g></g></g></g></svg>