<svg width="20" height="28" viewBox="0 0 20 28" fill="none" xmlns="http://www.w3.org/2000/svg">
<path id="Vector" d="M9.99998 27.2843C8.19561 25.6878 6.52312 23.9376 4.99999 22.052C2.71428 19.2202 1.25556e-06 15.003 1.25556e-06 10.9843C-0.000990025 8.93196 0.585012 6.92542 1.68384 5.21864C2.78268 3.51186 4.34495 2.18156 6.17294 1.39611C8.00093 0.610664 10.0125 0.405364 11.953 0.806196C13.8935 1.20703 15.6758 2.19597 17.0742 3.64788C18.0053 4.60937 18.7433 5.75285 19.2455 7.01215C19.7477 8.27144 20.0041 9.62155 19.9999 10.9843C19.9999 15.003 17.2857 19.2202 15 22.052C13.4768 23.9376 11.8043 25.6878 9.99998 27.2843ZM9.99998 6.53889C8.86334 6.53889 7.77325 7.00725 6.96952 7.84093C6.1658 8.67461 5.71427 9.80533 5.71427 10.9843C5.71427 12.1633 6.1658 13.294 6.96952 14.1277C7.77325 14.9614 8.86334 15.4298 9.99998 15.4298C11.1366 15.4298 12.2267 14.9614 13.0304 14.1277C13.8341 13.294 14.2857 12.1633 14.2857 10.9843C14.2857 9.80533 13.8341 8.67461 13.0304 7.84093C12.2267 7.00725 11.1366 6.53889 9.99998 6.53889Z" fill="#486284"/>
</svg>
