<svg width="15" height="15" viewBox="0 0 15 15" fill="none" xmlns="http://www.w3.org/2000/svg">
<g id="eva:arrow-back-fill">
<path id="Vector" d="M11.875 6.87481H4.4625L6.73125 4.14981C6.83734 4.02217 6.88838 3.85762 6.87314 3.69235C6.8579 3.52709 6.77764 3.37464 6.65 3.26856C6.52236 3.16247 6.35781 3.11143 6.19255 3.12667C6.02728 3.14191 5.87484 3.22217 5.76875 3.34981L2.64375 7.09981C2.62273 7.12963 2.60392 7.16097 2.5875 7.19356C2.5875 7.22481 2.5875 7.24356 2.54375 7.27481C2.51542 7.34647 2.50059 7.42275 2.5 7.49981C2.50059 7.57686 2.51542 7.65314 2.54375 7.72481C2.54375 7.75606 2.54375 7.77481 2.5875 7.80606C2.60392 7.83864 2.62273 7.86998 2.64375 7.89981L5.76875 11.6498C5.82751 11.7204 5.9011 11.7771 5.98428 11.816C6.06746 11.8549 6.15818 11.875 6.25 11.8748C6.39603 11.8751 6.53756 11.8242 6.65 11.7311C6.71329 11.6786 6.7656 11.6141 6.80395 11.5414C6.84229 11.4687 6.86591 11.3891 6.87346 11.3073C6.88101 11.2254 6.87233 11.1429 6.84793 11.0644C6.82353 10.9859 6.78388 10.913 6.73125 10.8498L4.4625 8.12481H11.875C12.0408 8.12481 12.1997 8.05896 12.3169 7.94175C12.4342 7.82454 12.5 7.66557 12.5 7.49981C12.5 7.33405 12.4342 7.17507 12.3169 7.05786C12.1997 6.94065 12.0408 6.87481 11.875 6.87481Z" fill="#1A202C"/>
</g>
</svg>
