<svg width="20" height="21" viewBox="0 0 20 21" fill="none" xmlns="http://www.w3.org/2000/svg">
<g id="ant-design:calendar-filled" clip-path="url(#clip0_68_1176)">
<path id="Vector" d="M20 19.6461C20 20.0788 19.6425 20.4284 19.2 20.4284H0.8C0.3575 20.4284 -2.98023e-07 20.0788 -2.98023e-07 19.6461V9.37947H20V19.6461ZM0.8 2.6328H5V1.06836C5 0.960803 5.09 0.872803 5.2 0.872803H6.6C6.71 0.872803 6.8 0.960803 6.8 1.06836V2.6328H13.2V1.06836C13.2 0.960803 13.29 0.872803 13.4 0.872803H14.8C14.91 0.872803 15 0.960803 15 1.06836V2.6328H19.2C19.6425 2.6328 20 2.98236 20 3.41502V7.71725H-2.98023e-07V3.41502C-2.98023e-07 2.98236 0.3575 2.6328 0.8 2.6328Z" fill="#486284"/>
</g>
<defs>
<clipPath id="clip0_68_1176">
<rect width="20" height="19.5556" fill="white" transform="matrix(-1 0 0 1 20 0.872803)"/>
</clipPath>
</defs>
</svg>
