<svg width="20" height="22" viewBox="0 0 20 22" fill="none" xmlns="http://www.w3.org/2000/svg">
<g id="bi:car-front-fill" clip-path="url(#clip0_68_1179)">
<path id="Vector" fill-rule="evenodd" clip-rule="evenodd" d="M3.15 4.9957C3.39113 4.40926 3.79212 3.90955 4.30321 3.55857C4.8143 3.20759 5.413 3.0208 6.025 3.02136H13.9775C15.2275 3.02136 16.3575 3.79807 16.85 4.9957L17.84 7.404C17.9338 7.63206 18.1025 7.81972 18.315 7.93049C18.94 8.25628 19.3838 8.86227 19.5213 9.57511L19.94 11.7632C19.9813 11.973 20.0013 12.1867 20.0013 12.4017V12.94C20.0013 14.0008 19.5138 14.9508 18.7513 15.5424V18.0081C18.7513 18.1809 18.6854 18.3466 18.5682 18.4688C18.451 18.591 18.292 18.6597 18.1263 18.6597H15.6263C15.4605 18.6597 15.3015 18.591 15.1843 18.4688C15.0671 18.3466 15.0013 18.1809 15.0013 18.0081V16.2644C13.3863 16.3269 11.57 16.3791 10.0013 16.3791C8.4325 16.3791 6.61625 16.3269 5.00125 16.2644V18.0081C5.00125 18.1809 4.9354 18.3466 4.81819 18.4688C4.70098 18.591 4.54201 18.6597 4.37625 18.6597H1.87625C1.71049 18.6597 1.55152 18.591 1.43431 18.4688C1.3171 18.3466 1.25125 18.1809 1.25125 18.0081V15.5424C0.488751 14.9508 0.00125122 14.0008 0.00125122 12.94V12.4017C0.00146101 12.1873 0.0219772 11.9734 0.0625012 11.7632L0.481251 9.57381C0.618751 8.86227 1.0625 8.25498 1.68625 7.93049C1.89974 7.81925 2.06849 7.6327 2.1625 7.404L3.1525 4.9957H3.15ZM3.75 13.4469C4.08152 13.4469 4.39946 13.3096 4.63388 13.0652C4.86831 12.8208 5 12.4893 5 12.1437C5 11.7981 4.86831 11.4666 4.63388 11.2222C4.39946 10.9778 4.08152 10.8405 3.75 10.8405C3.41848 10.8405 3.10054 10.9778 2.86612 11.2222C2.6317 11.4666 2.5 11.7981 2.5 12.1437C2.5 12.4893 2.6317 12.8208 2.86612 13.0652C3.10054 13.3096 3.41848 13.4469 3.75 13.4469V13.4469ZM16.25 13.4469C16.5815 13.4469 16.8995 13.3096 17.1339 13.0652C17.3683 12.8208 17.5 12.4893 17.5 12.1437C17.5 11.7981 17.3683 11.4666 17.1339 11.2222C16.8995 10.9778 16.5815 10.8405 16.25 10.8405C15.9185 10.8405 15.6005 10.9778 15.3661 11.2222C15.1317 11.4666 15 11.7981 15 12.1437C15 12.4893 15.1317 12.8208 15.3661 13.0652C15.6005 13.3096 15.9185 13.4469 16.25 13.4469V13.4469ZM7.5 10.8405C7.16848 10.8405 6.85054 10.9778 6.61612 11.2222C6.3817 11.4666 6.25 11.7981 6.25 12.1437C6.25 12.4893 6.3817 12.8208 6.61612 13.0652C6.85054 13.3096 7.16848 13.4469 7.5 13.4469H12.5C12.8315 13.4469 13.1495 13.3096 13.3839 13.0652C13.6183 12.8208 13.75 12.4893 13.75 12.1437C13.75 11.7981 13.6183 11.4666 13.3839 11.2222C13.1495 10.9778 12.8315 10.8405 12.5 10.8405H7.5ZM3.6325 7.17724L4.8275 4.68424C4.87946 4.57614 4.95924 4.48525 5.05791 4.42173C5.15659 4.3582 5.27028 4.32456 5.38625 4.32456H14.6138C14.7297 4.32456 14.8434 4.3582 14.9421 4.42173C15.0408 4.48525 15.1205 4.57614 15.1725 4.68424L16.3675 7.17724C16.4164 7.28235 16.4378 7.39902 16.4296 7.51551C16.4215 7.632 16.384 7.74419 16.321 7.84079C16.258 7.93738 16.1717 8.01495 16.0708 8.06571C15.9699 8.11646 15.858 8.13859 15.7463 8.12987C14.6088 8.03474 11.5588 7.90833 10 7.90833C8.44125 7.90833 5.39 8.03474 4.25375 8.12987C4.14203 8.13859 4.03008 8.11646 3.92918 8.06571C3.82827 8.01495 3.74198 7.93738 3.67899 7.84079C3.616 7.74419 3.57853 7.632 3.57037 7.51551C3.56221 7.39902 3.58364 7.28235 3.6325 7.17724V7.17724Z" fill="#486284"/>
</g>
<defs>
<clipPath id="clip0_68_1179">
<rect width="20" height="20.8511" fill="white" transform="translate(0 0.415039)"/>
</clipPath>
</defs>
</svg>
