<svg width="20" height="20" viewBox="0 0 20 20" fill="none" xmlns="http://www.w3.org/2000/svg">
<g id="Icon">
<g id="Vector">
<path fill-rule="evenodd" clip-rule="evenodd" d="M9.66855 7.38949C9.85162 7.20643 10.1484 7.20643 10.3314 7.38949L15.1105 12.1686C15.2935 12.3516 15.2935 12.6484 15.1105 12.8314L14.8895 13.0524C14.7064 13.2355 14.4097 13.2355 14.2266 13.0524L9.99999 8.82581L5.77337 13.0524C5.5903 13.2355 5.29355 13.2355 5.11049 13.0524L4.88949 12.8314C4.70643 12.6484 4.70643 12.3516 4.88949 12.1686L9.66855 7.38949Z" fill="#486284" fill-opacity="0.5"/>
<path d="M10.3535 8.47225L9.99999 8.1187L9.64644 8.47225L5.44193 12.6768L5.26516 12.5L9.99999 7.76516L14.7348 12.5L14.558 12.6768L10.3535 8.47225ZM5.24305 12.4779C5.24306 12.4779 5.24308 12.4779 5.2431 12.4779L5.24305 12.4779ZM14.7569 12.4779L14.7569 12.4779L14.7569 12.4779Z" stroke="#486284" stroke-opacity="0.5"/>
</g>
</g>
</svg>
